<?xml version="1.0" encoding="UTF-8" standalone="no"?>
<!-- Created with Inkscape (http://www.inkscape.org/) -->

<svg
   width="39.079002mm"
   height="39.078995mm"
   viewBox="0 0 39.079002 39.078995"
   version="1.1"
   id="svg1"
   xmlns="http://www.w3.org/2000/svg"
   xmlns:svg="http://www.w3.org/2000/svg">
  <defs
     id="defs1">
    <linearGradient
       id="SVGID_1_"
       gradientUnits="userSpaceOnUse"
       x1="0"
       y1="74.083397"
       x2="39.3755"
       y2="74.083397">
			<stop
   offset="0"
   style="stop-color:#F6C43D"
   id="stop1" />

			<stop
   offset="1"
   style="stop-color:#FCD975"
   id="stop2" />

		</linearGradient>
    <linearGradient
       id="SVGID_2_"
       gradientUnits="userSpaceOnUse"
       x1="54.252602"
       y1="57.746101"
       x2="93.628197"
       y2="57.746101">
			<stop
   offset="0"
   style="stop-color:#1480C4"
   id="stop3" />

			<stop
   offset="1"
   style="stop-color:#1C99D4"
   id="stop4" />

		</linearGradient>
    <linearGradient
       id="SVGID_3_"
       gradientUnits="userSpaceOnUse"
       x1="108.3683"
       y1="80.2827"
       x2="147.7438"
       y2="80.2827">
			<stop
   offset="0"
   style="stop-color:#B11E26"
   id="stop5" />

			<stop
   offset="1"
   style="stop-color:#C21C24"
   id="stop6" />

		</linearGradient>
  </defs>
  <g
     id="layer1"
     transform="translate(-91.829935,-101.3593)">
    <rect
       style="fill:none;stroke:#ffffff;stroke-width:0"
       id="rect1"
       width="39.078999"
       height="39.078999"
       x="91.829933"
       y="101.3593" />
    <g
       id="g19"
       transform="matrix(0.26458333,0,0,0.26458333,91.829954,105.63234)">
	<g
   id="g6">
		<linearGradient
   id="linearGradient8"
   gradientUnits="userSpaceOnUse"
   x1="0"
   y1="74.083397"
   x2="39.3755"
   y2="74.083397">
			<stop
   offset="0"
   style="stop-color:#F6C43D"
   id="stop7" />

			<stop
   offset="1"
   style="stop-color:#FCD975"
   id="stop8" />

		</linearGradient>

		<path
   class="st0"
   d="M 30.3,32.7 H 9 c -5,0 -9,4.1 -9,9 v 64.7 c 0,5 4.1,9 9,9 h 21.3 c 5,0 9,-4.1 9,-9 V 41.7 c 0.1,-5 -4,-9 -9,-9 z"
   id="path2"
   style="fill:url(#SVGID_1_)" />

		<linearGradient
   id="linearGradient10"
   gradientUnits="userSpaceOnUse"
   x1="54.252602"
   y1="57.746101"
   x2="93.628197"
   y2="57.746101">
			<stop
   offset="0"
   style="stop-color:#1480C4"
   id="stop9" />

			<stop
   offset="1"
   style="stop-color:#1C99D4"
   id="stop10" />

		</linearGradient>

		<path
   class="st1"
   d="M 84.6,0 H 63.3 c -5,0 -9,4.1 -9,9 v 97.4 c 0,5 4.1,9 9,9 h 21.3 c 5,0 9,-4.1 9,-9 V 9 c 0,-4.9 -4,-9 -9,-9 z"
   id="path4"
   style="fill:url(#SVGID_2_)" />

		<linearGradient
   id="linearGradient12"
   gradientUnits="userSpaceOnUse"
   x1="108.3683"
   y1="80.2827"
   x2="147.7438"
   y2="80.2827">
			<stop
   offset="0"
   style="stop-color:#B11E26"
   id="stop11" />

			<stop
   offset="1"
   style="stop-color:#C21C24"
   id="stop12" />

		</linearGradient>

		<path
   class="st2"
   d="m 138.7,45.1 h -21.3 c -5,0 -9,4.1 -9,9 v 52.3 c 0,5 4.1,9 9,9 h 21.3 c 5,0 9,-4.1 9,-9 V 54.1 c 0,-5 -4,-9 -9,-9 z"
   id="path6"
   style="fill:url(#SVGID_3_)" />

	</g>

	
</g>
  </g>
</svg>
